<svg data-name="그룹 19223" xmlns="http://www.w3.org/2000/svg" width="56" height="56" viewBox="0 0 56 56">
    <g data-name="그룹 19226">
        <path data-name="패스 7778" d="m23.12 14.265-8.855 8.855a6.262 6.262 0 0 1 8.813-8.9z" transform="translate(9.308 9.308)" style="stroke:#111;stroke-linecap:round;stroke-linejoin:round;stroke-width:2px;fill:none"/>
        <path data-name="패스 7779" d="M33.524 11.3a16.853 16.853 0 0 0-10.185-3.57c-6.178 0-11.939 3.64-15.939 9.94a9.32 9.32 0 0 0 0 9.083 25.1 25.1 0 0 0 4.739 5.547" transform="translate(4.661 5.797)" style="stroke:#111;stroke-linecap:round;stroke-linejoin:round;stroke-width:2px;fill:none"/>
        <path data-name="패스 7780" d="M12.42 32.23a16.13 16.13 0 0 0 6.265 1.3c6.177 0 11.935-3.64 15.942-9.94a9.32 9.32 0 0 0 0-9.082 28.784 28.784 0 0 0-1.855-2.572" transform="translate(9.315 8.948)" style="stroke:#111;stroke-linecap:round;stroke-linejoin:round;stroke-width:2px;fill:none"/>
        <path data-name="패스 7781" d="M21.624 16.7a6.238 6.238 0 0 1-4.935 4.935" transform="translate(12.517 12.525)" style="stroke:#111;stroke-linecap:round;stroke-linejoin:round;stroke-width:2px;fill:none"/>
        <path data-name="선 11" transform="translate(10.5 32.427)" style="stroke:#111;stroke-linecap:round;stroke-linejoin:round;stroke-width:2px;fill:none" d="M13.073 0 0 13.073"/>
        <path data-name="선 12" transform="translate(32.428 10.5)" style="stroke:#111;stroke-linecap:round;stroke-linejoin:round;stroke-width:2px;fill:none" d="M13.072 0 0 13.072"/>
        <path data-name="사각형 24509" style="fill:none" d="M0 0h56v56H0z"/>
    </g>
    <path data-name="사각형 24510" style="fill:none" d="M0 0h56v56H0z"/>
</svg>
